<?xml version="1.0" standalone="no"?>
<!DOCTYPE svg PUBLIC "-//W3C//DTD SVG 20010904//EN"
 "http://www.w3.org/TR/2001/REC-SVG-20010904/DTD/svg10.dtd">
<svg version="1.0" xmlns="http://www.w3.org/2000/svg"
 width="564.000000pt" height="564.000000pt" viewBox="0 0 564.000000 564.000000"
 preserveAspectRatio="xMidYMid meet">
<metadata>
Created by potrace 1.14, written by Peter Selinger 2001-2017
</metadata>
<g transform="translate(0.000000,564.000000) scale(0.100000,-0.100000)"
fill="#000000" stroke="none">
<path d="M7 5633 c-10 -9 -9 -53 1 -53 9 0 33 25 46 48 5 8 0 12 -17 12 -13 0
-27 -3 -30 -7z"/>
<path d="M1314 4244 c-103 -109 -237 -224 -261 -224 -11 0 -10 95 2 242 5 61
-8 81 -46 71 -24 -7 -26 -24 -24 -228 l3 -180 23 3 c13 2 35 11 48 20 13 9 31
22 40 27 50 31 173 136 219 187 30 32 58 58 63 58 6 0 9 -56 7 -135 -1 -74 1
-137 4 -141 4 -3 16 -3 27 1 23 7 23 2 26 225 1 69 5 135 9 147 5 16 2 24 -12
32 -16 8 -34 -7 -128 -105z"/>
<path d="M3139 4294 c-21 -26 -3 -44 44 -44 42 0 45 -2 51 -31 9 -48 7 -84 -6
-97 -9 -9 -7 -16 6 -31 14 -15 16 -30 11 -74 -6 -48 -4 -58 15 -77 16 -16 25
-19 34 -10 8 6 42 13 77 16 35 3 76 12 91 20 15 8 33 14 41 14 25 0 97 59 97
80 0 38 -45 55 -151 55 -54 0 -95 3 -91 6 4 4 31 14 61 24 66 22 96 48 82 74
-9 15 -88 48 -141 58 -167 30 -207 33 -221 17z m279 -69 c17 -4 32 -11 32 -15
0 -4 -34 -21 -75 -37 -67 -27 -75 -29 -75 -13 0 10 -3 32 -6 50 l-7 32 49 -5
c27 -3 64 -9 82 -12z m93 -156 c19 -10 20 -13 7 -26 -17 -17 -147 -53 -190
-53 -27 0 -28 2 -28 52 l0 51 95 -6 c53 -4 105 -12 116 -18z"/>
<path d="M3773 4289 c-18 -11 -42 -36 -53 -55 -12 -19 -25 -34 -29 -34 -10 0
-31 -124 -31 -179 0 -64 32 -93 109 -99 61 -4 62 -4 101 36 68 69 45 105 -33
53 -50 -34 -97 -40 -118 -14 -21 24 -8 103 16 103 29 0 104 42 120 67 10 14
21 39 26 55 7 26 4 34 -21 59 -34 34 -45 35 -87 8z m61 -47 c7 -12 -35 -57
-67 -70 -27 -11 -27 -11 -16 11 26 51 69 81 83 59z"/>
<path d="M1587 4289 c-13 -8 -17 -24 -17 -74 0 -42 -4 -65 -12 -68 -10 -3 -10
-11 0 -39 6 -19 12 -52 12 -74 0 -45 20 -89 39 -89 11 0 14 19 15 79 l1 78 90
4 c50 2 102 6 118 10 l27 6 0 -94 c0 -98 7 -122 32 -113 11 5 17 30 22 103 4
53 9 98 11 100 2 3 29 10 60 16 31 6 56 16 56 21 -1 6 -25 11 -55 13 l-55 3
-3 61 c-3 55 -5 61 -26 65 -39 5 -50 -15 -44 -79 l5 -58 -115 0 -114 0 4 59
c3 50 1 61 -15 69 -12 7 -25 7 -36 1z"/>
<path d="M2540 4285 c0 -8 -8 -15 -17 -15 -227 -5 -285 -3 -293 11 -8 11 -13
12 -29 2 -22 -14 -95 -19 -132 -9 -19 5 -28 3 -32 -7 -12 -31 16 -46 88 -50
l70 -3 0 -140 c0 -132 1 -139 20 -142 19 -3 22 5 33 95 7 54 12 117 12 140 0
23 5 45 11 49 6 3 44 8 85 11 68 3 74 2 74 -16 0 -24 32 -36 59 -22 11 6 27
11 36 11 14 0 16 -25 13 -252 -3 -232 -2 -253 14 -256 11 -2 19 5 23 20 7 30
14 128 14 201 l1 58 65 -5 c65 -5 113 5 127 27 11 17 10 76 -3 121 -11 41 -97
136 -122 136 -7 0 -36 11 -63 25 -58 29 -54 29 -54 10z m138 -112 c46 -35 68
-83 56 -125 -10 -35 -7 -34 -106 -30 l-37 2 1 93 1 94 26 -5 c14 -2 41 -16 59
-29z"/>
<path d="M4010 4285 c0 -8 -5 -15 -12 -15 -7 0 -32 -7 -55 -16 -33 -13 -43
-22 -43 -40 0 -26 35 -43 53 -25 6 6 21 11 34 11 l23 0 -2 -252 c-3 -231 -2
-253 14 -256 12 -2 18 6 23 30 8 46 14 122 15 191 l0 58 66 -5 c79 -5 120 7
128 37 11 42 6 91 -15 134 -20 42 -92 113 -114 113 -6 0 -34 11 -61 25 -58 29
-54 29 -54 10z m138 -112 c46 -35 68 -83 56 -125 -10 -35 -7 -34 -106 -30
l-37 2 1 93 1 94 26 -5 c14 -2 41 -16 59 -29z"/>
<path d="M3005 4279 c-4 -6 -14 -8 -22 -4 -27 10 -97 -77 -112 -138 -22 -91
-25 -166 -6 -187 36 -40 108 -29 183 27 81 61 100 185 39 253 -33 37 -75 62
-82 49z m38 -81 c34 -46 40 -71 27 -115 -16 -51 -83 -103 -133 -103 -39 0 -40
2 -37 58 3 62 76 192 107 192 7 0 23 -15 36 -32z"/>
<path d="M4455 4281 c-12 -12 -91 -16 -126 -7 -19 5 -28 3 -32 -7 -12 -31 16
-46 88 -50 l70 -3 0 -140 c0 -134 1 -139 21 -142 19 -3 22 4 28 60 4 35 10 97
13 138 3 41 9 79 13 84 5 5 51 11 102 13 86 4 107 11 108 36 0 5 -55 7 -122 5
-91 -2 -122 0 -125 10 -5 14 -25 16 -38 3z"/>
<path d="M3632 3643 c-88 -43 -180 -234 -232 -481 -20 -95 -52 -177 -73 -185
-8 -3 -133 1 -278 9 -235 13 -285 13 -459 -1 -250 -19 -273 -19 -293 3 -8 9
-30 70 -47 135 -66 247 -123 387 -187 458 -45 49 -81 69 -128 69 -51 0 -83
-20 -149 -90 -96 -105 -142 -217 -249 -615 -69 -252 -113 -555 -123 -845 -15
-394 71 -645 279 -818 75 -62 157 -107 323 -180 123 -54 186 -67 466 -102 326
-40 559 -42 815 -5 97 14 187 28 202 31 96 22 181 53 286 104 251 124 450 340
519 565 40 128 35 462 -10 690 -38 193 -101 445 -129 520 -13 37 -51 125 -83
198 -32 73 -69 159 -82 192 -48 126 -121 254 -166 294 -80 70 -138 86 -202 54z
m-1486 -1003 l61 0 6 -82 c3 -46 7 -91 9 -102 3 -17 -7 -18 -175 -17 -105 1
-189 7 -203 13 -22 10 -24 16 -24 89 0 119 -8 113 139 106 69 -4 154 -7 187
-7z m332 -15 c14 -31 16 -164 2 -185 -8 -13 -76 -17 -88 -5 -2 2 1 19 6 37 6
18 13 63 17 100 6 65 9 70 46 77 3 0 11 -10 17 -24z m1000 -32 l112 -6 0 -68
c0 -37 4 -79 10 -93 l10 -26 -178 0 c-125 0 -182 4 -190 12 -13 13 -17 169 -5
181 8 9 96 9 241 0z m351 -126 c1 -43 -3 -59 -14 -64 -9 -3 -18 -4 -20 -1 -3
2 1 44 7 94 10 70 14 83 19 59 4 -16 7 -56 8 -88z"/>
</g>
</svg>
